<mxfile host="app.diagrams.net" agent="Mozilla/5.0 (Windows NT 10.0; Win64; x64) AppleWebKit/537.36 (KHTML, like Gecko) Chrome/132.0.0.0 YaBrowser/25.2.0.0 Safari/537.36" version="26.1.1">
  <diagram name="Страница — 1" id="qzByXj-zJfU8EogYbYb1">
    <mxGraphModel dx="1434" dy="791" grid="1" gridSize="10" guides="1" tooltips="1" connect="1" arrows="1" fold="1" page="1" pageScale="1" pageWidth="827" pageHeight="1169" math="0" shadow="0">
      <root>
        <mxCell id="0" />
        <mxCell id="1" parent="0" />
        <mxCell id="dluVh_X-0PwzbDLNedab-12" style="edgeStyle=orthogonalEdgeStyle;rounded=0;orthogonalLoop=1;jettySize=auto;html=1;exitX=0.5;exitY=0.5;exitDx=0;exitDy=0;exitPerimeter=0;entryX=1;entryY=0.5;entryDx=0;entryDy=0;" edge="1" parent="1" source="dluVh_X-0PwzbDLNedab-1" target="dluVh_X-0PwzbDLNedab-9">
          <mxGeometry relative="1" as="geometry">
            <Array as="points">
              <mxPoint x="390" y="230" />
              <mxPoint x="390" y="165" />
            </Array>
          </mxGeometry>
        </mxCell>
        <mxCell id="dluVh_X-0PwzbDLNedab-13" style="edgeStyle=orthogonalEdgeStyle;rounded=0;orthogonalLoop=1;jettySize=auto;html=1;exitX=0.5;exitY=0.5;exitDx=0;exitDy=0;exitPerimeter=0;entryX=1;entryY=0.5;entryDx=0;entryDy=0;" edge="1" parent="1" source="dluVh_X-0PwzbDLNedab-1" target="dluVh_X-0PwzbDLNedab-11">
          <mxGeometry relative="1" as="geometry" />
        </mxCell>
        <mxCell id="dluVh_X-0PwzbDLNedab-14" style="edgeStyle=orthogonalEdgeStyle;rounded=0;orthogonalLoop=1;jettySize=auto;html=1;exitX=0.5;exitY=0.5;exitDx=0;exitDy=0;exitPerimeter=0;entryX=0;entryY=0.5;entryDx=0;entryDy=0;" edge="1" parent="1" source="dluVh_X-0PwzbDLNedab-1" target="dluVh_X-0PwzbDLNedab-7">
          <mxGeometry relative="1" as="geometry" />
        </mxCell>
        <mxCell id="dluVh_X-0PwzbDLNedab-15" style="edgeStyle=orthogonalEdgeStyle;rounded=0;orthogonalLoop=1;jettySize=auto;html=1;exitX=0.5;exitY=0.5;exitDx=0;exitDy=0;exitPerimeter=0;entryX=0;entryY=0.5;entryDx=0;entryDy=0;" edge="1" parent="1" source="dluVh_X-0PwzbDLNedab-1" target="dluVh_X-0PwzbDLNedab-8">
          <mxGeometry relative="1" as="geometry" />
        </mxCell>
        <mxCell id="dluVh_X-0PwzbDLNedab-16" style="edgeStyle=orthogonalEdgeStyle;rounded=0;orthogonalLoop=1;jettySize=auto;html=1;exitX=0.5;exitY=0.5;exitDx=0;exitDy=0;exitPerimeter=0;entryX=0;entryY=0.5;entryDx=0;entryDy=0;" edge="1" parent="1" source="dluVh_X-0PwzbDLNedab-1" target="dluVh_X-0PwzbDLNedab-6">
          <mxGeometry relative="1" as="geometry" />
        </mxCell>
        <mxCell id="dluVh_X-0PwzbDLNedab-17" style="edgeStyle=orthogonalEdgeStyle;rounded=0;orthogonalLoop=1;jettySize=auto;html=1;exitX=0.5;exitY=0.5;exitDx=0;exitDy=0;exitPerimeter=0;entryX=0.5;entryY=1;entryDx=0;entryDy=0;" edge="1" parent="1" source="dluVh_X-0PwzbDLNedab-1" target="dluVh_X-0PwzbDLNedab-5">
          <mxGeometry relative="1" as="geometry" />
        </mxCell>
        <mxCell id="dluVh_X-0PwzbDLNedab-1" value="Администратор" style="shape=umlActor;verticalLabelPosition=bottom;verticalAlign=top;html=1;" vertex="1" parent="1">
          <mxGeometry x="399" y="200" width="30" height="60" as="geometry" />
        </mxCell>
        <mxCell id="dluVh_X-0PwzbDLNedab-21" style="edgeStyle=orthogonalEdgeStyle;rounded=0;orthogonalLoop=1;jettySize=auto;html=1;exitX=0.5;exitY=0.5;exitDx=0;exitDy=0;exitPerimeter=0;" edge="1" parent="1" source="dluVh_X-0PwzbDLNedab-2" target="dluVh_X-0PwzbDLNedab-18">
          <mxGeometry relative="1" as="geometry" />
        </mxCell>
        <mxCell id="dluVh_X-0PwzbDLNedab-22" style="edgeStyle=orthogonalEdgeStyle;rounded=0;orthogonalLoop=1;jettySize=auto;html=1;exitX=0.5;exitY=0.5;exitDx=0;exitDy=0;exitPerimeter=0;entryX=0.5;entryY=1;entryDx=0;entryDy=0;" edge="1" parent="1" source="dluVh_X-0PwzbDLNedab-2" target="dluVh_X-0PwzbDLNedab-20">
          <mxGeometry relative="1" as="geometry" />
        </mxCell>
        <mxCell id="dluVh_X-0PwzbDLNedab-23" style="edgeStyle=orthogonalEdgeStyle;rounded=0;orthogonalLoop=1;jettySize=auto;html=1;exitX=0.5;exitY=0.5;exitDx=0;exitDy=0;exitPerimeter=0;entryX=0;entryY=0.5;entryDx=0;entryDy=0;" edge="1" parent="1" source="dluVh_X-0PwzbDLNedab-2" target="dluVh_X-0PwzbDLNedab-19">
          <mxGeometry relative="1" as="geometry" />
        </mxCell>
        <mxCell id="dluVh_X-0PwzbDLNedab-2" value="Клиент" style="shape=umlActor;verticalLabelPosition=bottom;verticalAlign=top;html=1;" vertex="1" parent="1">
          <mxGeometry x="399" y="450" width="30" height="60" as="geometry" />
        </mxCell>
        <mxCell id="dluVh_X-0PwzbDLNedab-5" value="Занести в БД товар" style="ellipse;whiteSpace=wrap;html=1;" vertex="1" parent="1">
          <mxGeometry x="362" y="90" width="104" height="50" as="geometry" />
        </mxCell>
        <mxCell id="dluVh_X-0PwzbDLNedab-6" value="Управлять товарами" style="ellipse;whiteSpace=wrap;html=1;" vertex="1" parent="1">
          <mxGeometry x="470" y="140" width="104" height="50" as="geometry" />
        </mxCell>
        <mxCell id="dluVh_X-0PwzbDLNedab-7" value="Управлять заказами" style="ellipse;whiteSpace=wrap;html=1;" vertex="1" parent="1">
          <mxGeometry x="510" y="220" width="104" height="50" as="geometry" />
        </mxCell>
        <mxCell id="dluVh_X-0PwzbDLNedab-8" value="Управлять клиентами" style="ellipse;whiteSpace=wrap;html=1;" vertex="1" parent="1">
          <mxGeometry x="470" y="300" width="104" height="50" as="geometry" />
        </mxCell>
        <mxCell id="dluVh_X-0PwzbDLNedab-9" value="Просмотр заказов клиента" style="ellipse;whiteSpace=wrap;html=1;" vertex="1" parent="1">
          <mxGeometry x="240" y="140" width="122" height="50" as="geometry" />
        </mxCell>
        <mxCell id="dluVh_X-0PwzbDLNedab-11" value="Просмотр каталога товаров" style="ellipse;whiteSpace=wrap;html=1;" vertex="1" parent="1">
          <mxGeometry x="200" y="220" width="114" height="60" as="geometry" />
        </mxCell>
        <mxCell id="dluVh_X-0PwzbDLNedab-18" value="Просмотр каталога товаров" style="ellipse;whiteSpace=wrap;html=1;" vertex="1" parent="1">
          <mxGeometry x="260" y="450" width="114" height="60" as="geometry" />
        </mxCell>
        <mxCell id="dluVh_X-0PwzbDLNedab-19" value="Просмотр своих заказов&amp;nbsp;" style="ellipse;whiteSpace=wrap;html=1;" vertex="1" parent="1">
          <mxGeometry x="452" y="455" width="122" height="50" as="geometry" />
        </mxCell>
        <mxCell id="dluVh_X-0PwzbDLNedab-20" value="Сделать заказ" style="ellipse;whiteSpace=wrap;html=1;" vertex="1" parent="1">
          <mxGeometry x="353" y="380" width="122" height="50" as="geometry" />
        </mxCell>
      </root>
    </mxGraphModel>
  </diagram>
</mxfile>
